/* XPM */
static char *c8801a755e7b4936c99e4f137853c3f4kT0NFgN08GffxJuS[] = {
/* columns rows colors chars-per-pixel */
"64 64 43 1 ",
"  c black",
". c #282008",
"X c #382810",
"o c #202020",
"O c #483818",
"+ c #503818",
"@ c #584020",
"# c #684820",
"$ c #704828",
"% c #000040",
"& c #000058",
"* c #000060",
"= c #000070",
"- c #000078",
"; c #805028",
": c #885830",
"> c #905830",
", c #986038",
"< c #A06038",
"1 c #A86840",
"2 c #B07040",
"3 c #B87848",
"4 c #C87848",
"5 c #D08050",
"6 c #D88850",
"7 c #E88858",
"8 c #F89860",
"9 c #000088",
"0 c #000098",
"q c #0000A0",
"w c #0000B0",
"e c #0000B8",
"r c #0000C8",
"t c #0000D0",
"y c #0000E0",
"u c #0000E8",
"i c #0000F8",
"p c #2020F8",
"a c #5050F8",
"s c #5860F8",
"d c #980088",
"f c #F8B890",
"g c #9898F8",
/* pixels */
"dddddddddddddddddddddddddddddddddddddddddddddddddddddddddddddddd",
"dddddddddddddddddddddddddddddddddddddddddddddddddddddddddddddddd",
"dddddddddddddddddddddddddddddddddddddddddddddddddddddddddddddddd",
"dddddddddddddddddddddddddddddddddddddddddddddddddddddddddddddddd",
"dddddddddddddddddddddddddddddddddddddddddddddddddddddddddddddddd",
"dddddddddddddddddddddddddddddddddddddddddddddddddddddddddddddddd",
"dddddddddddddddddddddddddddddddddddddddddddddddddddddddddddddddd",
"dddddddddddddddddddddddddddddddddddddddddddddddddddddddddddddddd",
"dddddddddddddddddddddddddddddd1ddddddddddddddddddddddddddddddddd",
"dddddddddddddddddddddddddddddd51dddddddddddddddddddddddddddddddd",
"dddddddddddddddddddddddddddddd7;dddddddddddddddddddddddddddddddd",
"ddddddddddddddddddddddddddddd57;dddddddddddddddddddddddddddddddd",
"ddddddddddddddddddddddddddddd57#dddddddddddddddddddddddddddddddd",
"dddddddddddddddddddddddddddd5f71Xddddddddddddddddddddddddddddddd",
"ddddddddddddddddddddddddddd5f>41<ddddddddddddddddddddddddddddddd",
"ddddddddddddddddddddddddddd554#>:ddddddddddddddddddddddddddddddd",
"dddddddddddddddddddddddddd:5:4>#:<$ddddddddddddddddddddddddddddd",
"dddddddddddddddddddddddddd517#1#:<$ddddddddddddddddddddddddddddd",
"dddddddddddddddddddddddddd5:775##:$ddddddddddddddddddddddddddddd",
"ddddddddddddddddddddddddd57:2:72,#$ddddddddddddddddddddddddddddd",
"ddddddddddddddddddddddddd577,25#5#$ddddddddddddddddddddddddddddd",
"dddddddddddddddddddddddd5,:8262#X:#:dddddddddddddddddddddddddddd",
"dddddddddddddddddddddddd51:582>#1:1:dd3ddddddddddddddddddddddddd",
"ddddddddddddddddddddddddd1,:,3;#1:1X5dd3dddddddddddddddddddddddd",
"ddddddddddddddddddddddddd::853>#1:1:5dd53ddddddddddddddddddddddd",
"dddddddddddddddddddddddd1,3513,#1:1::51#5ddddddddddddddddddddddd",
"dddddddddddddddddddddddd1#5,3#,1::15::1#:ddddddddddddddddddddddd",
"dddddddddddddddddddddddd55,3:5##X5,,5:1#5ddddddddddddddddddddddd",
"dddddddddddddddddddddddd55,33,25#53@11##dddddddddddddddddddddddd",
"dddddddddddddddddddddddd1517827##53,@1##dddddddddddddddddddddddd",
"ddddddddddddddddddddddddd1,:88,#,1#1@#:#dddddddddddddddddddddddd",
"ddddddddddddddddddddddddd:::18,#,##;1#:#dddddddddddddddddddddddd",
"ddddddddddddddddddddddddd58:15,5##,;1@5##ddddddddddddddddddddddd",
"ddddddddddddddddddddddddd2:855,55#,;;@:##ddddddddddddddddddddddd",
"dddddddddddddddddddddddddd2:,5,555,;:@:Xdddddddddddddddddddddddd",
"ddddddddddddddddddddddd33d25#<:5#5##@##ddddddddddddddddddddddddd",
"ddddddddddddddddddddddd322:,#:##,55,##$ddddddddddddddddddddddddd",
"ddddddddddddddddddddddd2,885<###,5#1#:$ddddddddddddddddddddddddd",
"dddddddddddddddddddddddd:5585#55#51#:<$ddddddddddddddddddddddddd",
"dddddddddddddddddddddddd:,5585###,#1#<$ddddddddddddddddddddddddd",
"ddddddddddddddddddddddddd,>,##551,1#<<dddddddddddddddddddddddddd",
"ddddddddddddddddddddddddd5d>>>5,1#1#<ddddddddddddddddddddddddddd",
"dddddddddddddddddddddddddddO#,#5#+#<<<dddddddddddddddddddddddddd",
"ddddddddddddddddddddddddddddO#,$++#<<ddddddddddddddddddddddddddd",
"ddddddddddddddddddddddddddddd5,+$Xf<d<dddddddddddddddddddddddddd",
"ddddddddddddddddddddddddddddd5X$+XXddddddddddddddddddddddddddddd",
"dddddddddddddddddddddddddddrXXXXXXX&dddddddddddddddddddddddddddd",
"dddddddddddddddddddddddddddagaiie0&&dddddddddddddddddddddddddddd",
"ddddddddddddddddddddddddddddrr0**%%ddddddddddddddddddddddddddddd",
"ddddddddddddddddddddddddddddyyw00*%ddddddddddddddddddddddddddddd",
"dddddddddddddddddddddddddddygstw0-&&dddddddddddddddddddddddddddd",
"ddddddddddddddddddddddddddypsrq09-*&&ddddddddddddddddddddddddddd",
"ddddddddddddddddddddddddddypueq09-=&&ddddddddddddddddddddddddddd",
"ddddddddddddddddddddddddddypueq09-=&&ddddddddddddddddddddddddddd",
"ddddddddddddddddddddddddddypueq09-=&&ddddddddddddddddddddddddddd",
"ddddddddddddddddddddddddddypueq09-=&&ddddddddddddddddddddddddddd",
"ddddddddddddddddddddddddddypueq09-=&&ddddddddddddddddddddddddddd",
"ddddddddddddddddddddddddddypueq09-=&&ddddddddddddddddddddddddddd",
"ddddddddddddddddddddddddddypueq09-=&&ddddddddddddddddddddddddddd",
"ddddddddddddddddddddddddddypueq09-=&&ddddddddddddddddddddddddddd",
"ddddddddddddddddddddddddddypueq09-*&&............XXXXXOO+++@dddd",
"dddddddddddddddddddddddddd0yueq09-&&%        .........XXOO+++@dd",
"ddddddddddddddddddddddddddd000--**%%o..............XXOOO+++@@ddd",
"dddddddddddddddddddddddddddddddddddddddddddddddddddddddddddddddd"
};
