/* XPM */
static char *_8e5dd29b48e4f1fbe44d01092922866YkVnZUZPEx6uvazS[] = {
/* columns rows colors chars-per-pixel */
"32 32 220 2 ",
"   c #F8F8F8",
".  c gray97",
"X  c #F6F6F6",
"o  c #F7F7F6",
"O  c #F7F4EC",
"+  c #F8EED6",
"@  c #F9E9C3",
"#  c #FBE4AE",
"$  c #F9DF9E",
"%  c #FBE09F",
"&  c #FBE2A7",
"*  c #F8E5B7",
"=  c #F9ECCE",
"-  c #F8F1E2",
";  c #F7F6F3",
":  c gray96",
">  c #F3F3F3",
",  c #F3F1EB",
"<  c #FCE1A0",
"1  c #FDD167",
"2  c #FFCC50",
"3  c #FFC844",
"4  c #FFC843",
"5  c #FFC948",
"6  c #FDCE5B",
"7  c #FDD87F",
"8  c #F8EED5",
"9  c #F8F3E7",
"0  c #FAE1A4",
"q  c #FFCD54",
"w  c #FBD67C",
"e  c #FAECCB",
"r  c #FAF0D8",
"t  c #FED266",
"y  c #FDC53F",
"u  c #F6BC34",
"i  c #ECB026",
"p  c #E2A216",
"a  c #DC9B0D",
"s  c #DC9A0C",
"d  c #DF9E11",
"f  c #E8A91E",
"g  c #F2B72F",
"h  c #FAC13B",
"j  c #FEC742",
"k  c #FFCB4C",
"l  c #FBE4AA",
"z  c #F7F6F2",
"x  c #FAEAC2",
"c  c #FFCE59",
"v  c #FAC23C",
"b  c #EAAD23",
"n  c #DD9C0F",
"m  c #D69303",
"M  c #D49000",
"N  c #D49101",
"B  c #DA9709",
"V  c #E3A418",
"C  c #F4BA33",
"Z  c #FFC947",
"A  c #FDDE91",
"S  c #F8F1E1",
"D  c #FAEBC9",
"F  c #FFD05E",
"G  c #F9C03A",
"H  c #E0A013",
"J  c #D59101",
"K  c #D89506",
"L  c #EFB42B",
"P  c #FDC640",
"I  c #FFC945",
"U  c #FDDF95",
"Y  c #F7F5F0",
"T  c #FBEDCC",
"R  c #FECF5D",
"E  c #EDB127",
"W  c #D79405",
"Q  c #E2A215",
"!  c #F3B830",
"~  c #DD9C0E",
"^  c #E1A115",
"/  c #FCC43F",
"(  c #FDDB8A",
")  c #F7F7F5",
"_  c #FCD576",
"`  c #F5BB33",
"'  c #D99708",
"]  c #EFB32A",
"[  c #D59202",
"{  c #E7A81D",
"}  c #FEC741",
"|  c #FFCB4D",
" . c #F8F0DB",
".. c #F8ECCD",
"X. c #D99608",
"o. c #E7A91E",
"O. c #F9C13A",
"+. c #FFC842",
"@. c #F8BF38",
"#. c #E5A51A",
"$. c #D69203",
"%. c #F0B42B",
"&. c #FCDB8B",
"*. c #F8F4EB",
"=. c #FDDB88",
"-. c #FEC641",
";. c #E9AC21",
":. c #E5A71B",
">. c #DA9809",
",. c #F6BD36",
"<. c #FAEBC7",
"1. c #FECB50",
"2. c #F5BB34",
"3. c #DB990A",
"4. c #F7BD36",
"5. c #EAAD22",
"6. c #EEB229",
"7. c #F4B932",
"8. c #FCC43E",
"9. c #F8C039",
"0. c #FBDB90",
"q. c #FBE3A8",
"w. c #EAAC22",
"e. c #FBC33D",
"r. c #DB9A0C",
"t. c #E6A71C",
"y. c #D69202",
"u. c #DB9A0B",
"i. c #FDD36C",
"p. c #F8F3E8",
"a. c #FBDA8A",
"s. c #F1B62D",
"d. c #FECE5B",
"f. c #F7F6F5",
"g. c #FDD572",
"h. c #E9AB21",
"j. c #E5A61A",
"k. c #FFCB4F",
"l. c #FAE6B5",
"z. c #F7F5EF",
"x. c #F7BE37",
"c. c #DB990B",
"v. c #FFCA4A",
"b. c #FAE3AC",
"n. c #F9C039",
"m. c #FDC540",
"M. c #E7A91D",
"N. c #FAE4AC",
"B. c #FDD472",
"V. c #F2B82F",
"C. c #F4BA32",
"Z. c #D59102",
"A. c #FECB4F",
"S. c #FAE6B4",
"D. c #FDDB8B",
"F. c #F8BE37",
"G. c #FECF5C",
"H. c #F9EDCE",
"J. c #FAE2A7",
"K. c #F1B62E",
"L. c #F0B52C",
"P. c #E8AB20",
"I. c #FDD26B",
"U. c #F7F3E8",
"Y. c #FFCC51",
"T. c #E6A81D",
"R. c #FFC742",
"E. c #FCC53F",
"W. c #E9AB20",
"Q. c #FCDD91",
"!. c #F7F4EB",
"~. c #FBD986",
"^. c #E8AA1F",
"/. c #D79404",
"(. c #FECA4D",
"). c #F8E9C5",
"_. c #FAEDCF",
"`. c #FAC23B",
"'. c #E5A61B",
"]. c #FCDC8C",
"[. c #F8F5EC",
"{. c #F7F6F4",
"}. c #FDD676",
"|. c #F1B52D",
" X c #FECB4D",
".X c #F8EFDA",
"XX c #F8EAC9",
"oX c #FECE5C",
"OX c #FBD988",
"+X c #F8EAC7",
"@X c #FADB92",
"#X c #F8F6F1",
"$X c #F9E9C1",
"%X c #FDCD58",
"&X c #FFC946",
"*X c #FADA8E",
"=X c #F7EDD6",
"-X c #FDD065",
";X c #FECA4B",
":X c #F9E2A8",
">X c #F7F2E6",
",X c #FBE2A5",
"<X c #FECB53",
"1X c #FED97F",
"2X c gray98",
"3X c #FBF8F2",
"4X c #FAE09F",
"5X c #FED268",
"6X c #FFCF5C",
"7X c #FCD77F",
"8X c #F9EED5",
"9X c #F8F4ED",
"0X c #F9EFD6",
"qX c #F9EAC4",
"wX c #FDE2A2",
"eX c #FBDF9E",
"rX c #FAE1A6",
"tX c #FBE8BA",
"yX c #F9ECCD",
"uX c #F8F2E3",
/* pixels */
"  . X   . X   . X   . X   . X   . X   . X . . X . . X . . X . . ",
". . . . . . . . . . o O + @ # $ % & * = - ; . . . . . . . . . . ",
": .   : .   > .   , < 1 2 3 4 4 4 4 4 5 6 7 8   X     X     X   ",
"  . X   . X   9 0 q 4 4 4 4 4 4 4 4 4 4 4 4 3 w e . X . . X . . ",
". . . . . . r t 4 4 4 y u i p a s d f g h j 4 4 k l z . . . . . ",
". . . . z x c 4 4 v b n m M M M M M M N B V C j 4 Z A S . . . . ",
"  . X   D F 4 4 G H J M M M M M M M M M M M K L P 4 I U Y X . . ",
"  . . T R 4 4 E W M M M M M M Q ! ~ M M M M M M ^ / 4 Z ( . . . ",
". . ) _ I 4 ` B M M M M N ' H u 4 ] ~ K M M M M [ { } 4 |  .. . ",
". . ..3 4 / X.M M M M M o.O.+.4 4 4 P @.#.$.M M M M %.4 4 &.O . ",
"  *.=.4 -.;.M M M M J :.4 4 4 4 4 4 4 4 j Q M M M M >.,.4 | <.. ",
"X = 1.4 2.K M M M M 3.4.4 4 5.6.4 %.7.8.9.~ M M M M M o.4 4 0.  ",
". q.4 4 w.M M M M M ~ e.4 4 r.E 4 t.y.u.' J M M M M M a O.4 i.p.",
"  a.4 4 ^ M M M M M s O.4 4 6.s.4 t.M M M M M M M M M K s.4 d...",
"f.g.4 h a M M M M M y.h.4 4 4 4 4 2.j.K M M M M M M M N w.4 k.l.",
"z.i.4 x.c.M M M M M M K %.8.4 4 4 4 y u ^ $.M M M M M M o.4 v.b.",
"z.i.4 x.c.M M M M M M M J r.o.n.4 +.4 4 m.M.M M M M M M o.4 v.N.",
"f.B.4 h a M M M M M M M M M M E 4 V.O.4 4 C.Z.M M M M N w.4 A.S.",
". D.4 4 ^ M M M M M K j.V $.M E 4 t.~ P 4 F.W M M M M K s.4 G.H.",
". J.4 4 w.M M M M M :.y 8.K.Q L.4 ;.P.j 4 ` $.M M M M a O.4 I.U.",
"  = Y.4 2.K M M M M T.4 4 4 R.-.4 E.+.4 4 W.M M M M M o.4 4 Q.X ",
". !.~.4 -.;.M M M M $.Q ` j 4 4 4 4 4 m.^./.M M M M >.,.4 (.).  ",
". . _.3 4 / X.M M M M M M X.o.`.4 4.'.W M M M M M M %.4 4 ].[.. ",
". . {.}.I 4 ` B M M M M M M M |.4 ^.M M M M M M [ { } 4  X.X. . ",
". .   XXoX4 4 E W M M M M M M Q ! ~ M M M M M M ^ / 4 Z OX  .   ",
"X .   X +X6 4 4 G H J M M M M M M M M M M M K L P 4 I @X#X  .   ",
". . . . z $X%X4 4 v b n m M M M M M M N B V C j 4 &X*XS . . . . ",
". . . . . . =X-X4 4 4 y u i p a s d f g h j 4 4 ;X:X; . . . . . ",
"X .   X .   : >X,X<X4 4 4 4 4 4 4 4 4 4 4 4 3 1XXX.   .     .   ",
"  . :   . : 2X. : 3X4X5XA.3 4 4 4 4 4 5 6X7X8X: . X : . X : . X ",
". . . . . . . . . . o 9X0XqXb.wXeXrXtXyXuX; . . . . . . . . . . ",
"X .   X .   : .   : .   : .   : .   : .   . .   . .   .     .   "
};
