/* XPM */
static char *d199ad6e1ddd45fca68744f4e606e8d0Bz5fzm2j7QgeXBcs[] = {
/* columns rows colors chars-per-pixel */
"32 32 20 1 ",
"  c #382810",
". c #202020",
"X c #282828",
"o c gray19",
"O c gray22",
"+ c #403018",
"@ c #483818",
"# c #503818",
"$ c #584020",
"% c #684820",
"& c #704828",
"* c gray25",
"= c #484848",
"- c #505050",
"; c #606060",
": c gray44",
"> c gray47",
", c #805028",
"< c #888888",
"1 c #989898",
/* pixels */
">@$$$$$$$$$@=$@#@$@+XXX-=-=--==-",
":;$$$$$$$@+;#@#@@#$@+XX--=--====",
"=:@$$$$++=:#@#@@@@#$@OX-*--=====",
"==;$$@+==:-@@@@@@@@#@+==*=-=====",
"==;@@+=-=== +@@@@@@+@ =>;*======",
"==;;;>:==**=- @@@@@+@ -$>*======",
"==;<<:=*=***=-O+@@ @+=$$$-*=====",
"==;>:-=*=*****==  @@ -$@$=**===*",
"=;>#;=O*****O*O;>=   ++@$+-****O",
";=$#@-oO****OOo;&&;=;::--;:OO*Oo",
"=$#@@@-oO***OO=&$$%&;<:XXX>-OOo;",
"$#@@@@+;oO**Oo-$%%$$$%;XXXX-oo;=",
"#@@@@@@+=oOOo=&$%$$$#$-XXX.X>>:$",
"@@@@@@@+-oooo-$$$#$#$$=XXX.X:;$@",
"@@@@@@++->oo=&$%$$$$$$=XX..=-$@@",
"@@@@++ =><>--$$%$$$$$$=X.X;-$@@#",
"@@@++ ;---->%$$%$$$#$#==;><#@@@@",
"@@++=>-====--$%$$$##++-;,<> @@@@",
"@+ =>-=======-%@++O-;,,%%%:= @@@",
"+O;>-=========-=;>,%%%%%%#;--= @",
"=;>-===========><>%%%%,%%-OOO-;=",
";1>*-========*==>;$%%%%%#OXXXOOO",
"X=1;O*=====**==**;=$%%%#OOXXXXXX",
".;>;--O****==**==OO#$#@=-OXXXXXX",
";:;-%%%;OOOO*==OOoX;@=:>:OX.....",
">;%%$$%%%;O*==*OoXXX:;;;;-======",
"%%$$$$$$%%%;OOOoXXX--;=-----;->;",
"$$$$$$$$&,,%%;=XXX---=--======:;",
"$#$$$$$&%$$$$%=>--;==--======O;%",
"$$$$$$%%$$$$$$$@;=-==-=======O;$",
"$$$$$$$$$$$$$$$@=:-=--==-====O%$",
"$$$$$%$$$$$$$$$@=>-=--===-==*-%$"
};
