/* XPM */
static char *_f78bca0c94e4180fbb8928548240372DhsdeDKkueaReEQS[] = {
/* columns rows colors chars-per-pixel */
"32 32 104 2 ",
"   c #3A1006",
".  c #361515",
"X  c #3B1616",
"o  c #3B1B1B",
"O  c #29251D",
"+  c #322A1E",
"@  c #3A2E1E",
"#  c #202020",
"$  c #2D2D2D",
"%  c #362E22",
"&  c #3A3124",
"*  c #343434",
"=  c #3B3B3B",
"-  c #4E0000",
";  c #460803",
":  c #530000",
">  c #5B0000",
",  c #421006",
"<  c #421616",
"1  c #4C1D1D",
"2  c #561D1D",
"3  c #640000",
"4  c #6B0000",
"5  c #730000",
"6  c #7C0000",
"7  c #651D1D",
"8  c #533B1D",
"9  c #5A3F1E",
"0  c #592222",
"q  c #403424",
"w  c #652424",
"e  c #6C2323",
"r  c #6F2A2A",
"t  c #712323",
"y  c #7C3030",
"u  c #5A4636",
"i  c #644423",
"p  c #6D4926",
"a  c #6E4928",
"s  c #714B27",
"d  c #744C29",
"f  c #794F2A",
"g  c #7D512C",
"h  c #434343",
"j  c #4C4C4C",
"k  c #525252",
"l  c #5B5B5B",
"z  c #635349",
"x  c #636363",
"c  c #6C6C6C",
"v  c #717171",
"b  c gray49",
"n  c #840000",
"m  c #8B0000",
"M  c #930000",
"N  c #9C0000",
"B  c #A40000",
"V  c #AB0000",
"C  c #B40000",
"Z  c #BA0000",
"A  c #822727",
"S  c #8E2424",
"D  c #852A2A",
"F  c #912727",
"G  c #992323",
"H  c #932C2C",
"J  c #982E2E",
"K  c #C20000",
"L  c #CD0000",
"P  c #D40000",
"I  c #E30000",
"U  c #82542E",
"Y  c #865630",
"T  c #885630",
"R  c #8B5932",
"E  c #925C35",
"W  c #935E38",
"Q  c #966137",
"!  c #9A6139",
"~  c #A0643C",
"^  c #A3683D",
"/  c #A86A3E",
"(  c #8E644A",
")  c #91684F",
"_  c #9A7050",
"`  c #AA6C40",
"'  c #AD6D41",
"]  c #B37043",
"[  c #B27044",
"{  c #B57144",
"}  c #B47244",
"|  c #B77345",
" . c #BA7547",
".. c #A57B55",
"X. c #C07B47",
"o. c #C2784A",
"O. c #CA804C",
"+. c #CF804F",
"@. c gray51",
"#. c #888888",
"$. c #8B8B8B",
"%. c gray55",
"&. c #8E8E8E",
"*. c gray63",
/* pixels */
"= h h h h h = h = h = h h j h h h = h = h j h h h = = = h h h = ",
"t M M n n m 1 j *.$.$.#.#.#.$.#.#.%.k j P P L L Z Z L C V Z Z 7 ",
"t 3 3 4 3 > + j $.v v x c v x v x x = j C m m 6 M m N m m n m < ",
"w 3 4 4 3 > O j %.v x v x x l c x x * = N m N n 5 N M m m n M . ",
"0 > ; ;   , O h c k k k k j j h h h $ h n 3 3 3 3 3 > 3 > 4 > o ",
"j * * = * $ * h q = = $ $ = * $ * = = j = h h j h = * $ * = = = ",
"C C B B B B V M j ..X.o. . ./  .' ` ` ` ` ` [ }  . .u h I C C C ",
"M M n n m 6 N > * ) E W ! T Y U W R Y Y R R W Y ! U & j V N m M ",
"M m 6 n m 6 M > * ..E ! E Y d g Q g Q U s R E g R R % = B N n n ",
"4 > > 4 3 > 3 - = z g p g d a a d s p p i a a i d i % h N 3 : 4 ",
"h * * * * = * $ h j & = * * = h = = $ $ * = = $ = = = j h * = = ",
"b #.$.$.#.b b $.b b @.b &.x h y m M m m m m 5 6 6 6 n 6 6 n 5 1 ",
"c c v x x v c v l x v l c j = y 6 4 4 4 6 4 4 3 5 5 5 4 6 5 > . ",
"c l l x x c x v l v x l x k = y 6 4 4 6 5 4 > 3 3 4 4 4 4 3 3 . ",
"c l k j j k k k k j j k k = * r 3 3 > > > > 3 > : > > > > : 3 . ",
"k h = = * * = h = = = = $ * = j = = h & $ $ * h = $ * = = = = = ",
"C C C C Z 0 h o.{ } } ' [ / ! [ _ / / Q j F C C Z V V B B V V B ",
"n N N m n o h / ~ W E R Q U U E E U E d h J n m M m N m m m m n ",
"M M N m n o j ' E R U R R R g R Y T W a h H M M m M m m m M n n ",
"> 4 > 4 > o j R R d d g s a p f a d d 8 = A 5 6 n 6 6 6 5 4 5 4 ",
"= = * = * * h = $ * = h h $ $ = = = * = h j = = j k = $ = = = = ",
"t 5 n 6 n n 6 6 6 6 n 5 6 n 5 4 h G K V V V B N M B B B V B B 2 ",
"t > 5 4 4 4 4 4 3 4 3 3 4 4 4 > * S M 5 n 4 n n 6 n n m m m 6 . ",
"e > 5 4 4 5 4 3 3 3 5 4 4 5 4 > $ F n m 6 6 n 6 6 6 n n m m n . ",
"e : 3 3 3 > > 3 > > - > > > > : * D 5 4 5 3 5 4 4 3 4 4 4 4 3 . ",
"h = q = h = k h * = = * $ * = * h h = = = * = h h * = $ # $ = = ",
"C V B N B V N B m h _ O.o.} ' } / ^ ! / ^ ! Q u j P B V B B N B ",
"m 6 m 6 n 5 n 6 3 = ) E R d U R R 9 s R f R g & j N n m m m 6 5 ",
"m n 5 6 m n 5 m > = ( g R E U U p 8 g U R p f % j V 6 M n 6 n m ",
"m 6 5 6 6 5 n n 3 = ) g R U g U 9 d U ! Y g d % h N 4 5 m m 4 n ",
"o X X X X X o X . = z & & & q q q q q & @ @ + O h 2 X < . . . X ",
"k j h j j k k j k k k k j k j k j j j j j h j j k j j j j j j j "
};
