/* XPM */
static char *fc0a59ea72484975cdfffa88b5a0225d1Bf78wgZEtRP3lTC[] = {
/* columns rows colors chars-per-pixel */
"32 32 25 1 ",
"  c #303000",
". c #202020",
"X c #282828",
"o c gray22",
"O c #404000",
"+ c #484800",
"@ c #585800",
"# c #686800",
"$ c #707000",
"% c #484848",
"& c #505050",
"* c #606060",
"= c gray44",
"- c gray47",
"; c #808000",
": c #909000",
"> c #A8A800",
", c #888888",
"< c #989898",
"1 c gray66",
"2 c gray69",
"3 c #C0C0C0",
"4 c #D0D0D0",
"5 c #D8D8D8",
"6 c gray91",
/* pixels */
"XXXXXXXXXXXXXXXXXXXXXXXXXXXXXXXX",
"&&&&&%4:::33:,o3,-##-oo##@-*%%%%",
"4$2,.%4#@#1<@&o3,1*+=oo:##5::;$4",
"2+#+.%4@-@<,=Oo-,,1*oo+;-;;@#@*$",
"<1+%.%3@-+,,1O O+Oooo.#;-##-#**-",
"==&o.%5#-,111&.OX...X;O@#,#,@***",
"...XX&5,,#,-#&. 1>;4;;O,*&OoooXX",
"ooooo&,11@,,@&.%;-$,#+oXXXXXoooo",
"<<##<.%3,+=,=&.%;-$=+o#$@%-<<<<<",
"1,##=.%<**+,&&.%@,+*&oo@@%;;###@",
"1,##&.&*&  o...X=o....*@&%$,###@",
",-##&.&%....%%%%,$$$&o3@*%$,,#@+",
",1#,%.;$$$-&#;$$@###+o5@@%#1#+1O",
"***%o.;@@@*%#$#-+@@&Oo6@+%o%OO%&",
"...XX%;+@@*o#$#,=@@* o6@&+ooo...",
"*2$$$=$*+@*.@##,@+@= +5@&%##;@%%",
"*#@+@=611@*.&61,@=@=oo5@&%=#@++o",
"*#+,@&51<@*.&6@+=,#O.#4@ %1#*O<o",
"*#@@@&3,1@* %2+11@+O.%1+O%1#=O<o",
"*2@@@&<<1@* o%,OO.+ .%%++&......",
"*2+@@&&@,@*OX%ooo% @+@+--@#----o",
"*21@@.%+@@*O.$33;;3;;;;;;;;;;;@X",
"*2,@,.%1 @* +#:###@1##@+@####==X",
"%1@&&X%1,+*o+ 5##+@1##+,,#+,+-=X",
"%.O&&o%***&o +5##+O#-#=$,#=++-=.",
"%%+%Xoo......X<@O==1=@=+*@=1O,=.",
"%;::#1=&ooooo%%oooX&&O&&&O&&&&&X",
"%;$;$*$$$$$$@311,&oooOoXXOXXXXo%",
"%4$;$*;$$$-$@111*o%$$%%&+#+O%%&&",
"%,**@*@**O*@+***&.%@+22&###@+,5.",
"%.......     .....% &**%*#*-+1,.",
"&&%%%%oooOoOooooooo&&ooo& .. ..."
};
