/* XPM */
static char *_fb4bbbf01a143f98ed1910e5a01edf9MMnhYpHgw8STy3Ju[] = {
/* columns rows colors chars-per-pixel */
"32 32 121 2 ",
"   c black",
".  c #0B0B0B",
"X  c #101010",
"o  c gray10",
"O  c #252525",
"+  c #2C2C2C",
"@  c #333333",
"#  c #3A3A3A",
"$  c #4E0000",
"%  c #6B0000",
"&  c #750000",
"*  c #691D1D",
"=  c #721C1C",
"-  c #4E2600",
";  c #643C16",
":  c #492A2A",
">  c #5B2C2C",
",  c #742A2A",
"<  c #623C3C",
"1  c #713232",
"2  c #6B431D",
"3  c #78502A",
"4  c #72573F",
"5  c #434343",
"6  c #4C4C4C",
"7  c #545454",
"8  c #5B5B5B",
"9  c #7A5353",
"0  c #636363",
"q  c #6A6A6A",
"w  c #737373",
"e  c #7B7B7B",
"r  c #900000",
"t  c #891C1C",
"y  c #9A1C1C",
"u  c #A60000",
"i  c #AC0000",
"p  c #B50000",
"a  c #BC0000",
"s  c #A21212",
"d  c #BF1717",
"f  c #842626",
"g  c #882424",
"h  c #832A2A",
"j  c #9E2020",
"k  c #9B2B2B",
"l  c #9A3F3F",
"z  c #A32525",
"x  c #AA2A2A",
"c  c #B63838",
"v  c #BD3F3F",
"b  c #C20000",
"n  c #C80000",
"m  c #D30000",
"M  c #DA0000",
"N  c #C71C1C",
"B  c #E00000",
"V  c #EC0000",
"C  c #FC0000",
"Z  c #FC2020",
"A  c #E03B3B",
"S  c #905A2A",
"D  c #AE6A2C",
"F  c #A26C3C",
"G  c #A04C4C",
"H  c #AA4949",
"J  c #AC5454",
"K  c #976565",
"L  c #926868",
"P  c #9C7373",
"I  c #A56666",
"U  c #A76C6C",
"Y  c #C44646",
"T  c #CA5E5E",
"R  c #D75959",
"E  c #CE6161",
"W  c #C36B6B",
"Q  c #DF6161",
"!  c #DF7171",
"~  c #EC6E6E",
"^  c #EA7676",
"/  c #F07272",
"(  c #FC7E7E",
")  c #949016",
"_  c #9B971D",
"`  c #AFAB31",
"'  c #C68C1D",
"]  c #868447",
"[  c #A3A164",
"{  c #ADAB6E",
"}  c #C4C046",
"|  c #C7C349",
" . c #CBC74D",
".. c #CECA50",
"X. c #D2CE54",
"o. c #F1D84B",
"O. c #DEDA60",
"+. c #ECE86E",
"@. c #848484",
"#. c #8B8B8B",
"$. c #949494",
"%. c #9B9B9B",
"&. c #B18989",
"*. c #A2A2A2",
"=. c #ABABAB",
"-. c #B4B4B4",
";. c #BCBCBC",
":. c #F48686",
">. c #FC9595",
",. c #D1BCA9",
"<. c #E3A4A4",
"1. c #ECADAD",
"2. c #F0B9B9",
"3. c #FCE7B9",
"4. c #C3C3C3",
"5. c #CCCCCC",
"6. c gray83",
"7. c #F4F4D9",
"8. c gray88",
"9. c #ECECEC",
"0. c gray99",
/* pixels */
"5 # 5 5 # 8 @.@.@.@.@.@.@.7 5 w e e e e 0 # # # # # # # 5 5 # 5 ",
"w w q L 6 $.5.4.5.4.5.4.;.6 q 4.%.$.$.$.w + 8 -.-.-.%.w ] q q q ",
";.;.O.3.) | 0 X. .X.X...| _ ` X.} X.X.} ` ) ` +.O.[ { +.7.o.,.-.",
"=.%.F ' ; 2 1 % - ; ; ; ; ; ; ; ; ; ; ; ; ; ; ; - $ + 3 D S 4 %.",
"$.$.w 6 + q R V m u & = g I e k h 7 9 , f t k n n p 7 e @.w #.#.",
"0 8 # + O 0 ~ V M b i i n ( *.V p 8 G r a B Z C M p 8 0 8 7 7 7 ",
"+ O + + @ 7 Q V M a i i n ( *.B p 8 G r a B Z C M p # @ + O + O ",
"5 # @ # @ 6 v V M b i i n ( *.V i 8 G r a B Z C M p + # 5 5 5 5 ",
"-.-.-.*.8 # z V M n i i n >.*.V p 8 G r a B Z C M p 8 %.;.;.;.-.",
"%.%.%.@.7 # z V M n i i W 6.*.9.6.@.6 9 s B Z C M p 8 $.=.*.*.*.",
"%.%.%.@.6 @ x V M b i L 0 *.#.$.@.8 6 # q N Z C M p 8 #.%.$.#.$.",
"$.e $.@.5 + c V M b x 6 #.6.@.# %.-.#.# 8 I Z C M p 8 #.$.%.e #.",
"$.%.$.q # + ~ V M b q 8 =.%.5 8 4.7 . 0 7 0 ! C M p 6 0 w w #.$.",
"8 7 6 + + @ 5.=.e 6 6 8 4.8 5 8 q X   . 6 6 %.%.w : + @ # @ # 6 ",
"# 5 8 q q # 1.:.E H %.0 5.8.8 # + o #   7 q 2.^ W l # 5 5 # # + ",
"@.5.5.;.-.# / V M a %.8 5 8.#.# O + #.7 @.q :.C m p 8 %.%.$.@.5 ",
"*.=.$.*.%.6 6.=.e 6 w 0 @ 7 6 7 q . o w $.q *.%.q # 8 #.%.%.e 5 ",
"%.=.$.*.$.: 1.:.E H 5 6 =.8 7 6.6.+   # 6 7 2.^ T l 0 @.%.$.@.5 ",
"*.=.*.%.%.# R V M a J 0 e 0.0.9.#.. O 8 q w A C M p 6 q w w 0 # ",
"*.%.*.%.$.# Y V M b i P =.*.5.9.-.0 # 6 6 U Z C M a o + + + + + ",
"*.=.$.*.#.+ x V M b i d &.#.*.$.@.7 6 # K B Z C M p 6 @.%.*.#.5 ",
"$.=.%.*.w O z V M b i i n <.*.^ W 7 P t a B Z C M p 8 =.5.4.w # ",
"#.*.$.e 0 + z V M b i i n ( *.V p 7 G r a B Z C M p 8 #.*.%.0 # ",
"q $.e 7 @ @ z V M b i i n ( *.B p 8 G r a B Z C M p 8 #.$.$.0 + ",
"6 @ + + + 5 j V M b i i n ( *.V p 8 G r a B Z C M p 8 @.$.e 0 + ",
"7 e e 0 5 5 y V M b i i n ( *.B p 8 G r a B Z C M a 8 e @.@.7 + ",
"e 5.;.6.5.-.Y V M b i i n ( *.V i 8 G r a B Z C M p + + + + + # ",
"e ;.*.$.%.=.Q V M b i i n ( *.V p 8 G r a B Z C M p O @ @ @ # 6 ",
"w -.*.#.%.%.%.q q 0 0 7 < 9 7 , * # 5 + : f k y t > 6 $.#.w 8 7 ",
"w 0 7 6 6 6 6 7 7 6 7 6 7 6 6 6 # + w $.e w q q @.#.*.%.%.%.%.# ",
"6 + + O O + O O O O O + O O + O O + 5 5 5 5 5 q e e e e e e 0 # ",
"# # @ @ @ @ + + + + + + + + + + + + + # @ + + # + o o O o o O + "
};
